<?xml version="1.0" encoding="UTF-8"?>
<!DOCTYPE svg PUBLIC "-//W3C//DTD SVG 1.1//EN" "http://www.w3.org/Graphics/SVG/1.1/DTD/svg11.dtd">
<svg xmlns="http://www.w3.org/2000/svg" version="1.1" width="240px" height="240px" style="shape-rendering:geometricPrecision; text-rendering:geometricPrecision; image-rendering:optimizeQuality; fill-rule:evenodd; clip-rule:evenodd" xmlns:xlink="http://www.w3.org/1999/xlink">
<g><path style="opacity:0.962" fill="#fefffe" d="M 54.5,18.5 C 100.835,18.3333 147.168,18.5 193.5,19C 203.093,22.0096 208.593,28.5096 210,38.5C 210.667,85.5 210.667,132.5 210,179.5C 158.571,180.331 107.071,180.831 55.5,181C 51.7623,182.399 50.0956,185.066 50.5,189C 50.0983,193.2 51.765,196.2 55.5,198C 106.5,198.333 157.5,198.667 208.5,199C 209.783,202.064 210.45,205.397 210.5,209C 210.463,212.553 210.13,216.053 209.5,219.5C 158.17,220.667 106.837,220.833 55.5,220C 40.9079,218.075 32.0746,209.908 29,195.5C 28.3333,144.833 28.3333,94.1667 29,43.5C 32.5846,30.1292 41.0846,21.7959 54.5,18.5 Z M 80.5,60.5 C 109.833,60.5 139.167,60.5 168.5,60.5C 168.5,66.5 168.5,72.5 168.5,78.5C 139.167,78.5 109.833,78.5 80.5,78.5C 80.5,72.5 80.5,66.5 80.5,60.5 Z"/></g>
</svg>
