<?xml version="1.0" encoding="UTF-8"?>
<!DOCTYPE svg PUBLIC "-//W3C//DTD SVG 1.1//EN" "http://www.w3.org/Graphics/SVG/1.1/DTD/svg11.dtd">
<svg xmlns="http://www.w3.org/2000/svg" version="1.1" width="240px" height="240px" style="shape-rendering:geometricPrecision; text-rendering:geometricPrecision; image-rendering:optimizeQuality; fill-rule:evenodd; clip-rule:evenodd" xmlns:xlink="http://www.w3.org/1999/xlink">
<g><path style="opacity:0.994" fill="#cb00ed" d="M 45.5,28.5 C 94.8345,28.3333 144.168,28.5 193.5,29C 202.333,31.1667 207.833,36.6667 210,45.5C 210.667,94.8333 210.667,144.167 210,193.5C 207.833,202.333 202.333,207.833 193.5,210C 144.167,210.667 94.8333,210.667 45.5,210C 36.6667,207.833 31.1667,202.333 29,193.5C 28.3333,144.167 28.3333,94.8333 29,45.5C 31.3493,36.6522 36.8493,30.9855 45.5,28.5 Z M 50.5,50.5 C 96.5,50.5 142.5,50.5 188.5,50.5C 188.5,96.5 188.5,142.5 188.5,188.5C 142.5,188.5 96.5,188.5 50.5,188.5C 50.5,142.5 50.5,96.5 50.5,50.5 Z"/></g>
<g><path style="opacity:0.999" fill="#cb00ee" d="M 69.5,69.5 C 76.1667,69.5 82.8333,69.5 89.5,69.5C 89.5,76.1667 89.5,82.8333 89.5,89.5C 82.8333,89.5 76.1667,89.5 69.5,89.5C 69.5,82.8333 69.5,76.1667 69.5,69.5 Z"/></g>
<g><path style="opacity:1" fill="#cb00ee" d="M 109.5,69.5 C 129.5,69.5 149.5,69.5 169.5,69.5C 169.5,76.1667 169.5,82.8333 169.5,89.5C 149.5,89.5 129.5,89.5 109.5,89.5C 109.5,82.8333 109.5,76.1667 109.5,69.5 Z"/></g>
<g><path style="opacity:0.999" fill="#cb00ee" d="M 69.5,109.5 C 76.1667,109.5 82.8333,109.5 89.5,109.5C 89.5,116.167 89.5,122.833 89.5,129.5C 82.8333,129.5 76.1667,129.5 69.5,129.5C 69.5,122.833 69.5,116.167 69.5,109.5 Z"/></g>
<g><path style="opacity:1" fill="#cb00ee" d="M 109.5,109.5 C 129.5,109.5 149.5,109.5 169.5,109.5C 169.5,116.167 169.5,122.833 169.5,129.5C 149.5,129.5 129.5,129.5 109.5,129.5C 109.5,122.833 109.5,116.167 109.5,109.5 Z"/></g>
<g><path style="opacity:0.999" fill="#cb00ee" d="M 69.5,149.5 C 76.1667,149.5 82.8333,149.5 89.5,149.5C 89.5,156.167 89.5,162.833 89.5,169.5C 82.8333,169.5 76.1667,169.5 69.5,169.5C 69.5,162.833 69.5,156.167 69.5,149.5 Z"/></g>
<g><path style="opacity:1" fill="#cb00ee" d="M 109.5,149.5 C 129.5,149.5 149.5,149.5 169.5,149.5C 169.5,156.167 169.5,162.833 169.5,169.5C 149.5,169.5 129.5,169.5 109.5,169.5C 109.5,162.833 109.5,156.167 109.5,149.5 Z"/></g>
</svg>
