<?xml version="1.0" encoding="UTF-8"?>
<!DOCTYPE svg PUBLIC "-//W3C//DTD SVG 1.1//EN" "http://www.w3.org/Graphics/SVG/1.1/DTD/svg11.dtd">
<svg xmlns="http://www.w3.org/2000/svg" version="1.1" width="240px" height="240px" style="shape-rendering:geometricPrecision; text-rendering:geometricPrecision; image-rendering:optimizeQuality; fill-rule:evenodd; clip-rule:evenodd" xmlns:xlink="http://www.w3.org/1999/xlink">
<g><path style="opacity:0.96" fill="#fefffe" d="M 37.5,28.5 C 58.8359,28.3334 80.1693,28.5 101.5,29C 104.66,29.9908 107.16,31.8241 109,34.5C 110.642,63.4384 110.975,92.4384 110,121.5C 108.5,125.667 105.667,128.5 101.5,130C 80.1667,130.667 58.8333,130.667 37.5,130C 33,128.833 30.1667,126 29,121.5C 28.3333,93.5 28.3333,65.5 29,37.5C 30.3246,33.0103 33.1579,30.0103 37.5,28.5 Z"/></g>
<g><path style="opacity:0.953" fill="#fefffe" d="M 137.5,28.5 C 158.836,28.3334 180.169,28.5 201.5,29C 206.027,30.1932 208.86,33.0265 210,37.5C 210.667,55.5 210.667,73.5 210,91.5C 208.5,95.6667 205.667,98.5 201.5,100C 180.167,100.667 158.833,100.667 137.5,100C 133,98.8333 130.167,96 129,91.5C 128.333,73.5 128.333,55.5 129,37.5C 130.325,33.0103 133.158,30.0103 137.5,28.5 Z"/></g>
<g><path style="opacity:0.958" fill="#fefffe" d="M 137.5,118.5 C 158.836,118.333 180.169,118.5 201.5,119C 206.027,120.193 208.86,123.027 210,127.5C 210.667,152.167 210.667,176.833 210,201.5C 208.5,205.667 205.667,208.5 201.5,210C 180.167,210.667 158.833,210.667 137.5,210C 133,208.833 130.167,206 129,201.5C 128.333,176.833 128.333,152.167 129,127.5C 130.325,123.01 133.158,120.01 137.5,118.5 Z"/></g>
<g><path style="opacity:0.95" fill="#fefffe" d="M 37.5,148.5 C 58.8359,148.333 80.1693,148.5 101.5,149C 106.027,150.193 108.86,153.027 110,157.5C 110.667,172.167 110.667,186.833 110,201.5C 108.5,205.667 105.667,208.5 101.5,210C 80.1667,210.667 58.8333,210.667 37.5,210C 33,208.833 30.1667,206 29,201.5C 28.3333,186.833 28.3333,172.167 29,157.5C 30.3246,153.01 33.1579,150.01 37.5,148.5 Z"/></g>
</svg>
