<?xml version="1.0" encoding="UTF-8"?>
<!DOCTYPE svg PUBLIC "-//W3C//DTD SVG 1.1//EN" "http://www.w3.org/Graphics/SVG/1.1/DTD/svg11.dtd">
<svg xmlns="http://www.w3.org/2000/svg" version="1.1" width="240px" height="240px" style="shape-rendering:geometricPrecision; text-rendering:geometricPrecision; image-rendering:optimizeQuality; fill-rule:evenodd; clip-rule:evenodd" xmlns:xlink="http://www.w3.org/1999/xlink">
<g><path style="opacity:0.972" fill="#cc00ee" d="M 53.5,39.5 C 68.9287,37.6127 77.5953,44.2793 79.5,59.5C 77.085,76.7175 67.4183,82.8842 50.5,78C 39.9871,71.4639 36.8204,62.2972 41,50.5C 44.1476,45.5094 48.3143,41.8427 53.5,39.5 Z"/></g>
<g><path style="opacity:0.972" fill="#cc00ee" d="M 113.5,39.5 C 128.929,37.6127 137.595,44.2793 139.5,59.5C 137.085,76.7175 127.418,82.8842 110.5,78C 99.9871,71.4639 96.8204,62.2972 101,50.5C 104.148,45.5094 108.314,41.8427 113.5,39.5 Z"/></g>
<g><path style="opacity:0.972" fill="#cc00ee" d="M 173.5,39.5 C 188.929,37.6127 197.595,44.2793 199.5,59.5C 197.085,76.7175 187.418,82.8842 170.5,78C 159.987,71.4639 156.82,62.2972 161,50.5C 164.148,45.5094 168.314,41.8427 173.5,39.5 Z"/></g>
<g><path style="opacity:0.972" fill="#cc00ee" d="M 53.5,99.5 C 68.9287,97.6127 77.5953,104.279 79.5,119.5C 77.085,136.718 67.4183,142.884 50.5,138C 39.9871,131.464 36.8204,122.297 41,110.5C 44.1476,105.509 48.3143,101.843 53.5,99.5 Z"/></g>
<g><path style="opacity:0.972" fill="#cc00ee" d="M 113.5,99.5 C 128.929,97.6127 137.595,104.279 139.5,119.5C 137.085,136.718 127.418,142.884 110.5,138C 99.9871,131.464 96.8204,122.297 101,110.5C 104.148,105.509 108.314,101.843 113.5,99.5 Z"/></g>
<g><path style="opacity:0.972" fill="#cc00ee" d="M 173.5,99.5 C 188.929,97.6127 197.595,104.279 199.5,119.5C 197.085,136.718 187.418,142.884 170.5,138C 159.987,131.464 156.82,122.297 161,110.5C 164.148,105.509 168.314,101.843 173.5,99.5 Z"/></g>
<g><path style="opacity:0.972" fill="#cc00ee" d="M 113.5,159.5 C 128.929,157.613 137.595,164.279 139.5,179.5C 137.085,196.718 127.418,202.884 110.5,198C 99.9871,191.464 96.8204,182.297 101,170.5C 104.148,165.509 108.314,161.843 113.5,159.5 Z"/></g>
</svg>
