<?xml version="1.0" encoding="UTF-8"?>
<!DOCTYPE svg PUBLIC "-//W3C//DTD SVG 1.1//EN" "http://www.w3.org/Graphics/SVG/1.1/DTD/svg11.dtd">
<svg xmlns="http://www.w3.org/2000/svg" version="1.1" width="240px" height="240px" style="shape-rendering:geometricPrecision; text-rendering:geometricPrecision; image-rendering:optimizeQuality; fill-rule:evenodd; clip-rule:evenodd" xmlns:xlink="http://www.w3.org/1999/xlink">
<g><path style="opacity:0.977" fill="#cc00ee" d="M 187.5,19.5 C 188.552,19.3505 189.552,19.5172 190.5,20C 200.348,29.6808 210.014,39.5141 219.5,49.5C 212.167,57.5 204.5,65.1667 196.5,72.5C 186.167,62.8333 176.167,52.8333 166.5,42.5C 173.891,35.1128 180.891,27.4461 187.5,19.5 Z"/></g>
<g><path style="opacity:0.992" fill="#cb00ed" d="M 45.5,28.5 C 76.5875,28.0152 107.588,28.5152 138.5,30C 131.803,37.0317 124.803,43.6984 117.5,50C 95.1692,50.5 72.8358,50.6666 50.5,50.5C 50.5,96.5 50.5,142.5 50.5,188.5C 96.5,188.5 142.5,188.5 188.5,188.5C 188.333,166.831 188.5,145.164 189,123.5C 195.302,116.197 201.968,109.197 209,102.5C 210.651,132.747 210.984,163.081 210,193.5C 207.833,202.333 202.333,207.833 193.5,210C 144.167,210.667 94.8333,210.667 45.5,210C 36.6667,207.833 31.1667,202.333 29,193.5C 28.3333,144.167 28.3333,94.8333 29,45.5C 31.3493,36.6522 36.8493,30.9855 45.5,28.5 Z"/></g>
<g><path style="opacity:0.984" fill="#cc00ee" d="M 151.5,56.5 C 162.08,65.5758 172.246,75.2424 182,85.5C 182.667,86.5 182.667,87.5 182,88.5C 157.861,111.638 134.028,135.138 110.5,159C 100.172,159.5 89.8387,159.666 79.5,159.5C 79.3335,149.161 79.5002,138.828 80,128.5C 104.035,104.632 127.868,80.632 151.5,56.5 Z"/></g>
</svg>
