<?xml version="1.0" encoding="UTF-8"?>
<!DOCTYPE svg PUBLIC "-//W3C//DTD SVG 1.1//EN" "http://www.w3.org/Graphics/SVG/1.1/DTD/svg11.dtd">
<svg xmlns="http://www.w3.org/2000/svg" version="1.1" width="240px" height="240px" style="shape-rendering:geometricPrecision; text-rendering:geometricPrecision; image-rendering:optimizeQuality; fill-rule:evenodd; clip-rule:evenodd" xmlns:xlink="http://www.w3.org/1999/xlink">
<g><path style="opacity:0.967" fill="#cb00ee" d="M 38.5,38.5 C 92.501,38.3333 146.501,38.5 200.5,39C 211.896,40.0642 218.396,46.2309 220,57.5C 220.667,98.8333 220.667,140.167 220,181.5C 218.767,191.403 213.267,197.569 203.5,200C 147.5,200.667 91.5,200.667 35.5,200C 27.073,197.905 21.573,192.739 19,184.5C 18.3333,141.167 18.3333,97.8333 19,54.5C 22.1065,44.8826 28.6065,39.5493 38.5,38.5 Z M 40.5,60.5 C 93.501,60.3333 146.501,60.5 199.5,61C 198.503,100.094 198.17,139.261 198.5,178.5C 145.833,178.5 93.1667,178.5 40.5,178.5C 40.5,139.167 40.5,99.8333 40.5,60.5 Z"/></g>
<g><path style="opacity:0.978" fill="#cb00ed" d="M 90.5,79.5 C 112.128,78.6211 120.295,88.6211 115,109.5C 107.284,119.841 97.4509,122.341 85.5,117C 77.5491,111.157 74.7158,103.323 77,93.5C 79.0166,86.3185 83.5166,81.6518 90.5,79.5 Z"/></g>
<g><path style="opacity:1" fill="#cb00ee" d="M 139.5,89.5 C 152.833,89.5 166.167,89.5 179.5,89.5C 179.5,96.1667 179.5,102.833 179.5,109.5C 166.167,109.5 152.833,109.5 139.5,109.5C 139.5,102.833 139.5,96.1667 139.5,89.5 Z"/></g>
<g><path style="opacity:0.983" fill="#cc00ee" d="M 91.5,126.5 C 104.211,125.676 115.544,129.176 125.5,137C 131.918,143.079 134.918,150.579 134.5,159.5C 109.5,159.5 84.5,159.5 59.5,159.5C 58.2172,151.407 60.3839,144.407 66,138.5C 73.5104,132.159 82.0104,128.159 91.5,126.5 Z"/></g>
<g><path style="opacity:1" fill="#cb00ee" d="M 149.5,129.5 C 159.5,129.5 169.5,129.5 179.5,129.5C 179.5,136.167 179.5,142.833 179.5,149.5C 169.5,149.5 159.5,149.5 149.5,149.5C 149.5,142.833 149.5,136.167 149.5,129.5 Z"/></g>
</svg>
