<?xml version="1.0" encoding="UTF-8"?>
<!DOCTYPE svg PUBLIC "-//W3C//DTD SVG 1.1//EN" "http://www.w3.org/Graphics/SVG/1.1/DTD/svg11.dtd">
<svg xmlns="http://www.w3.org/2000/svg" version="1.1" width="240px" height="240px" style="shape-rendering:geometricPrecision; text-rendering:geometricPrecision; image-rendering:optimizeQuality; fill-rule:evenodd; clip-rule:evenodd" xmlns:xlink="http://www.w3.org/1999/xlink">
<g><path style="opacity:0.95" fill="#fefffe" d="M 96.5,18.5 C 108.505,18.3335 120.505,18.5001 132.5,19C 136.529,21.0217 139.029,24.1884 140,28.5C 140.667,85.8333 140.667,143.167 140,200.5C 139.201,206.505 135.701,209.672 129.5,210C 118.108,210.909 106.775,210.576 95.5,209C 91.3303,207.17 89.1636,204.003 89,199.5C 88.3333,142.5 88.3333,85.5 89,28.5C 89.8223,23.8523 92.3223,20.5189 96.5,18.5 Z"/></g>
<g><path style="opacity:0.955" fill="#fefffe" d="M 167.5,78.5 C 178.838,78.3335 190.172,78.5001 201.5,79C 205.667,80.5 208.5,83.3333 210,87.5C 210.667,125.167 210.667,162.833 210,200.5C 208.869,205.631 205.702,208.798 200.5,210C 190.167,210.667 179.833,210.667 169.5,210C 163.923,209.639 160.423,206.806 159,201.5C 158.333,163.5 158.333,125.5 159,87.5C 160.325,83.0103 163.158,80.0103 167.5,78.5 Z"/></g>
<g><path style="opacity:0.951" fill="#fefffe" d="M 28.5,108.5 C 40.5621,108.085 52.5621,108.585 64.5,110C 66.3333,111.167 67.8333,112.667 69,114.5C 70.6421,143.438 70.9754,172.438 70,201.5C 69.1114,205.112 66.9448,207.612 63.5,209C 51.8915,210.579 40.2249,210.912 28.5,210C 24.1571,208.99 20.9904,206.49 19,202.5C 18.3333,174.167 18.3333,145.833 19,117.5C 20.4625,112.548 23.6291,109.548 28.5,108.5 Z"/></g>
</svg>
