<?xml version="1.0" encoding="UTF-8"?>
<!DOCTYPE svg PUBLIC "-//W3C//DTD SVG 1.1//EN" "http://www.w3.org/Graphics/SVG/1.1/DTD/svg11.dtd">
<svg xmlns="http://www.w3.org/2000/svg" version="1.1" width="240px" height="240px" style="shape-rendering:geometricPrecision; text-rendering:geometricPrecision; image-rendering:optimizeQuality; fill-rule:evenodd; clip-rule:evenodd" xmlns:xlink="http://www.w3.org/1999/xlink">
<g><path style="opacity:1" fill="#fefffe" d="M 109.5,19.5 C 116.167,19.5 122.833,19.5 129.5,19.5C 129.5,52.8333 129.5,86.1667 129.5,119.5C 122.833,119.5 116.167,119.5 109.5,119.5C 109.5,86.1667 109.5,52.8333 109.5,19.5 Z"/></g>
<g><path style="opacity:0.948" fill="#fefffe" d="M 86.5,55.5 C 87.5,55.5 88.5,55.5 89.5,55.5C 89.6664,63.1739 89.4997,70.8406 89,78.5C 60.7626,98.8926 53.4293,125.226 67,157.5C 86.983,187.874 113.816,196.041 147.5,182C 172.869,166.537 182.703,144.037 177,114.5C 172.852,98.8736 163.852,86.8736 150,78.5C 149.169,70.8117 149.335,63.145 150.5,55.5C 190.296,75.4303 205.796,107.43 197,151.5C 186.372,183.463 164.539,202.629 131.5,209C 91.3804,212.696 62.547,196.529 45,160.5C 30.7308,114.105 44.5641,79.1054 86.5,55.5 Z"/></g>
</svg>
