<?xml version="1.0" encoding="UTF-8"?>
<!DOCTYPE svg PUBLIC "-//W3C//DTD SVG 1.1//EN" "http://www.w3.org/Graphics/SVG/1.1/DTD/svg11.dtd">
<svg xmlns="http://www.w3.org/2000/svg" version="1.1" width="240px" height="240px" style="shape-rendering:geometricPrecision; text-rendering:geometricPrecision; image-rendering:optimizeQuality; fill-rule:evenodd; clip-rule:evenodd" xmlns:xlink="http://www.w3.org/1999/xlink">
<g><path style="opacity:0.954" fill="#fefffe" d="M 59.5,18.5 C 99.5014,18.3333 139.501,18.5 179.5,19C 180.492,35.4226 180.825,51.9226 180.5,68.5C 196.541,66.2749 208.708,71.9415 217,85.5C 218.737,89.6495 219.737,93.9828 220,98.5C 220.667,122.5 220.667,146.5 220,170.5C 219.304,180.531 214.138,187.031 204.5,190C 196.507,190.5 188.507,190.666 180.5,190.5C 180.819,200.416 180.486,210.25 179.5,220C 139.5,220.667 99.5,220.667 59.5,220C 58.5144,210.25 58.181,200.416 58.5,190.5C 50.4931,190.666 42.4931,190.5 34.5,190C 26.6667,187.5 21.5,182.333 19,174.5C 18.3333,147.833 18.3333,121.167 19,94.5C 21.1036,83.4038 27.2703,75.5704 37.5,71C 44.3946,69.277 51.3946,68.4436 58.5,68.5C 58.1819,51.7561 58.5152,35.0895 59.5,18.5 Z M 80.5,40.5 C 106.5,40.5 132.5,40.5 158.5,40.5C 158.5,49.8333 158.5,59.1667 158.5,68.5C 132.5,68.5 106.5,68.5 80.5,68.5C 80.5,59.1667 80.5,49.8333 80.5,40.5 Z M 150.5,99.5 C 163.087,100.48 175.754,100.813 188.5,100.5C 188.5,106.5 188.5,112.5 188.5,118.5C 175.833,118.5 163.167,118.5 150.5,118.5C 150.5,112.167 150.5,105.833 150.5,99.5 Z M 80.5,160.5 C 106.5,160.5 132.5,160.5 158.5,160.5C 158.667,173.504 158.5,186.504 158,199.5C 132.241,198.505 106.408,198.172 80.5,198.5C 80.5,185.833 80.5,173.167 80.5,160.5 Z"/></g>
</svg>
