<?xml version="1.0" encoding="UTF-8"?>
<!DOCTYPE svg PUBLIC "-//W3C//DTD SVG 1.1//EN" "http://www.w3.org/Graphics/SVG/1.1/DTD/svg11.dtd">
<svg xmlns="http://www.w3.org/2000/svg" version="1.1" width="240px" height="240px" style="shape-rendering:geometricPrecision; text-rendering:geometricPrecision; image-rendering:optimizeQuality; fill-rule:evenodd; clip-rule:evenodd" xmlns:xlink="http://www.w3.org/1999/xlink">
<g><path style="opacity:0.929" fill="#fefffe" d="M 117.5,19.5 C 119.178,25.6677 120.178,32.1677 120.5,39C 158.736,41.0277 186.236,59.1944 203,93.5C 218.521,137.936 208.021,174.769 171.5,204C 136.838,225.868 102.171,225.868 67.5,204C 42.0407,185.414 29.3741,160.414 29.5,129C 36.1667,128.333 42.8333,128.333 49.5,129C 51.2355,159.484 65.9022,181.151 93.5,194C 127.24,204.445 155.074,195.945 177,168.5C 193.053,140.496 192.053,113.163 174,86.5C 159.953,69.3946 141.786,60.7279 119.5,60.5C 119.83,66.8682 119.496,73.2015 118.5,79.5C 104.92,70.2151 91.9203,60.2151 79.5,49.5C 91.8981,39.0953 104.565,29.0953 117.5,19.5 Z"/></g>
<g><path style="opacity:0.972" fill="#fefffe" d="M 111.5,99.5 C 138.645,97.8112 151.145,110.478 149,137.5C 142.491,154.844 129.991,162.011 111.5,159C 94.1556,152.491 86.9889,139.991 90,121.5C 93.3501,110.318 100.517,102.984 111.5,99.5 Z"/></g>
</svg>
