<?xml version="1.0" encoding="UTF-8"?>
<!DOCTYPE svg PUBLIC "-//W3C//DTD SVG 1.1//EN" "http://www.w3.org/Graphics/SVG/1.1/DTD/svg11.dtd">
<svg xmlns="http://www.w3.org/2000/svg" version="1.1" width="240px" height="240px" style="shape-rendering:geometricPrecision; text-rendering:geometricPrecision; image-rendering:optimizeQuality; fill-rule:evenodd; clip-rule:evenodd" xmlns:xlink="http://www.w3.org/1999/xlink">
<g><path style="opacity:0.966" fill="#fefffe" d="M 111.5,18.5 C 143.578,17.7491 161.578,33.2491 165.5,65C 161.294,95.8736 143.627,110.874 112.5,110C 86.0152,103.516 73.1818,86.6824 74,59.5C 78.0072,37.9955 90.5072,24.3288 111.5,18.5 Z"/></g>
<g><path style="opacity:0.967" fill="#fefffe" d="M 93.5,128.5 C 113.2,128.105 132.867,128.605 152.5,130C 177.161,135.328 194.661,149.495 205,172.5C 209.438,184.51 210.938,196.843 209.5,209.5C 149.179,210.826 88.8456,210.826 28.5,209.5C 26.5923,174.46 41.259,149.293 72.5,134C 79.4515,131.451 86.4515,129.618 93.5,128.5 Z"/></g>
</svg>
