<?xml version="1.0" encoding="UTF-8"?>
<!DOCTYPE svg PUBLIC "-//W3C//DTD SVG 1.1//EN" "http://www.w3.org/Graphics/SVG/1.1/DTD/svg11.dtd">
<svg xmlns="http://www.w3.org/2000/svg" version="1.1" width="240px" height="240px" style="shape-rendering:geometricPrecision; text-rendering:geometricPrecision; image-rendering:optimizeQuality; fill-rule:evenodd; clip-rule:evenodd" xmlns:xlink="http://www.w3.org/1999/xlink">
<g><path style="opacity:0.958" fill="#fefffe" d="M 71.5,49.5 C 97.9002,47.3468 112.567,59.3468 115.5,85.5C 113.101,107.399 100.934,119.399 79,121.5C 50.7532,116.248 39.7532,99.5816 46,71.5C 51.2456,60.3079 59.7456,52.9746 71.5,49.5 Z"/></g>
<g><path style="opacity:0.896" fill="#fefffe" d="M 169.5,78.5 C 176.422,78.1878 183.256,78.5212 190,79.5C 190.5,89.1609 190.666,98.8276 190.5,108.5C 200.172,108.334 209.839,108.5 219.5,109C 220.833,116 220.833,123 219.5,130C 209.839,130.5 200.172,130.666 190.5,130.5C 190.666,139.839 190.5,149.173 190,158.5C 186.767,159.786 183.267,160.453 179.5,160.5C 175.916,160.482 172.416,160.148 169,159.5C 168.5,149.839 168.334,140.172 168.5,130.5C 158.828,130.666 149.161,130.5 139.5,130C 138.167,123 138.167,116 139.5,109C 149.161,108.5 158.828,108.334 168.5,108.5C 168.193,98.4176 168.526,88.4176 169.5,78.5 Z"/></g>
<g><path style="opacity:0.958" fill="#fefffe" d="M 63.5,128.5 C 76.2131,128.126 88.8798,128.626 101.5,130C 119.478,135.311 131.645,146.811 138,164.5C 139.916,172.74 140.582,181.073 140,189.5C 99.9044,190.663 59.7378,190.83 19.5,190C 16.1581,156.521 30.8248,136.021 63.5,128.5 Z"/></g>
</svg>
